<?xml version="1.0" encoding="UTF-8"?>
<!DOCTYPE svg PUBLIC "-//W3C//DTD SVG 1.1//EN" "http://www.w3.org/Graphics/SVG/1.1/DTD/svg11.dtd">
<svg xmlns="http://www.w3.org/2000/svg" version="1.1" width="256px" height="256px" style="shape-rendering:geometricPrecision; text-rendering:geometricPrecision; image-rendering:optimizeQuality; fill-rule:evenodd; clip-rule:evenodd" xmlns:xlink="http://www.w3.org/1999/xlink">
<g><path style="opacity:1" fill="#e4dc68" d="M 143.5,-0.5 C 148.833,-0.5 154.167,-0.5 159.5,-0.5C 159.5,4.83333 159.5,10.1667 159.5,15.5C 164.833,15.5 170.167,15.5 175.5,15.5C 175.5,20.8333 175.5,26.1667 175.5,31.5C 170.167,31.5 164.833,31.5 159.5,31.5C 159.5,42.1667 159.5,52.8333 159.5,63.5C 154.167,63.5 148.833,63.5 143.5,63.5C 143.5,58.1667 143.5,52.8333 143.5,47.5C 143.5,31.5 143.5,15.5 143.5,-0.5 Z"/></g>
<g><path style="opacity:1" fill="#dbbd00" d="M 127.5,47.5 C 122.167,47.5 116.833,47.5 111.5,47.5C 111.5,36.8333 111.5,26.1667 111.5,15.5C 116.833,15.5 122.167,15.5 127.5,15.5C 127.5,26.1667 127.5,36.8333 127.5,47.5 Z"/></g>
<g><path style="opacity:1" fill="#d5b000" d="M 207.5,31.5 C 202.167,31.5 196.833,31.5 191.5,31.5C 191.5,26.1667 191.5,20.8333 191.5,15.5C 196.833,15.5 202.167,15.5 207.5,15.5C 207.5,20.8333 207.5,26.1667 207.5,31.5 Z"/></g>
<g><path style="opacity:1" fill="#ddd22c" d="M 175.5,31.5 C 175.5,36.8333 175.5,42.1667 175.5,47.5C 180.833,47.5 186.167,47.5 191.5,47.5C 191.5,52.8333 191.5,58.1667 191.5,63.5C 186.167,63.5 180.833,63.5 175.5,63.5C 175.5,68.8333 175.5,74.1667 175.5,79.5C 170.167,79.5 164.833,79.5 159.5,79.5C 159.5,84.8333 159.5,90.1667 159.5,95.5C 154.167,95.5 148.833,95.5 143.5,95.5C 143.5,84.8333 143.5,74.1667 143.5,63.5C 148.833,63.5 154.167,63.5 159.5,63.5C 159.5,52.8333 159.5,42.1667 159.5,31.5C 164.833,31.5 170.167,31.5 175.5,31.5 Z"/></g>
<g><path style="opacity:1" fill="#d5b000" d="M 175.5,31.5 C 180.833,31.5 186.167,31.5 191.5,31.5C 191.5,36.8333 191.5,42.1667 191.5,47.5C 186.167,47.5 180.833,47.5 175.5,47.5C 175.5,42.1667 175.5,36.8333 175.5,31.5 Z"/></g>
<g><path style="opacity:1" fill="#ddd22c" d="M 191.5,31.5 C 196.833,31.5 202.167,31.5 207.5,31.5C 207.5,36.8333 207.5,42.1667 207.5,47.5C 202.167,47.5 196.833,47.5 191.5,47.5C 191.5,42.1667 191.5,36.8333 191.5,31.5 Z"/></g>
<g><path style="opacity:1" fill="#d5b000" d="M 207.5,31.5 C 212.833,31.5 218.167,31.5 223.5,31.5C 223.5,36.8333 223.5,42.1667 223.5,47.5C 218.167,47.5 212.833,47.5 207.5,47.5C 207.5,42.1667 207.5,36.8333 207.5,31.5 Z"/></g>
<g><path style="opacity:1" fill="#dbbd00" d="M 223.5,31.5 C 228.833,31.5 234.167,31.5 239.5,31.5C 239.5,36.8333 239.5,42.1667 239.5,47.5C 234.167,47.5 228.833,47.5 223.5,47.5C 223.5,42.1667 223.5,36.8333 223.5,31.5 Z"/></g>
<g><path style="opacity:1" fill="#dbbd00" d="M 127.5,47.5 C 132.833,47.5 138.167,47.5 143.5,47.5C 143.5,52.8333 143.5,58.1667 143.5,63.5C 143.5,74.1667 143.5,84.8333 143.5,95.5C 138.167,95.5 132.833,95.5 127.5,95.5C 127.5,79.5 127.5,63.5 127.5,47.5 Z"/></g>
<g><path style="opacity:1" fill="#dbbd00" d="M 191.5,47.5 C 196.833,47.5 202.167,47.5 207.5,47.5C 212.833,47.5 218.167,47.5 223.5,47.5C 223.5,52.8333 223.5,58.1667 223.5,63.5C 212.833,63.5 202.167,63.5 191.5,63.5C 191.5,58.1667 191.5,52.8333 191.5,47.5 Z"/></g>
<g><path style="opacity:1" fill="#dbbd00" d="M 191.5,63.5 C 191.5,68.8333 191.5,74.1667 191.5,79.5C 186.167,79.5 180.833,79.5 175.5,79.5C 175.5,74.1667 175.5,68.8333 175.5,63.5C 180.833,63.5 186.167,63.5 191.5,63.5 Z"/></g>
<g><path style="opacity:1" fill="#ddd22c" d="M 191.5,63.5 C 202.167,63.5 212.833,63.5 223.5,63.5C 228.833,63.5 234.167,63.5 239.5,63.5C 239.5,68.8333 239.5,74.1667 239.5,79.5C 228.833,79.5 218.167,79.5 207.5,79.5C 202.167,79.5 196.833,79.5 191.5,79.5C 191.5,74.1667 191.5,68.8333 191.5,63.5 Z"/></g>
<g><path style="opacity:1" fill="#a8a020" d="M 239.5,63.5 C 244.833,63.5 250.167,63.5 255.5,63.5C 255.5,68.8333 255.5,74.1667 255.5,79.5C 250.167,79.5 244.833,79.5 239.5,79.5C 239.5,74.1667 239.5,68.8333 239.5,63.5 Z"/></g>
<g><path style="opacity:1" fill="#dbbd00" d="M 175.5,79.5 C 175.5,84.8333 175.5,90.1667 175.5,95.5C 170.167,95.5 164.833,95.5 159.5,95.5C 159.5,90.1667 159.5,84.8333 159.5,79.5C 164.833,79.5 170.167,79.5 175.5,79.5 Z"/></g>
<g><path style="opacity:1" fill="#ddd22c" d="M 175.5,79.5 C 180.833,79.5 186.167,79.5 191.5,79.5C 191.5,84.8333 191.5,90.1667 191.5,95.5C 186.167,95.5 180.833,95.5 175.5,95.5C 175.5,90.1667 175.5,84.8333 175.5,79.5 Z"/></g>
<g><path style="opacity:1" fill="#918917" d="M 191.5,79.5 C 196.833,79.5 202.167,79.5 207.5,79.5C 207.5,84.8333 207.5,90.1667 207.5,95.5C 202.167,95.5 196.833,95.5 191.5,95.5C 191.5,90.1667 191.5,84.8333 191.5,79.5 Z"/></g>
<g><path style="opacity:1" fill="#b0a822" d="M 207.5,79.5 C 218.167,79.5 228.833,79.5 239.5,79.5C 239.5,84.8333 239.5,90.1667 239.5,95.5C 234.167,95.5 228.833,95.5 223.5,95.5C 218.167,95.5 212.833,95.5 207.5,95.5C 207.5,90.1667 207.5,84.8333 207.5,79.5 Z"/></g>
<g><path style="opacity:1" fill="#918917" d="M 239.5,79.5 C 244.833,79.5 250.167,79.5 255.5,79.5C 255.5,84.8333 255.5,90.1667 255.5,95.5C 250.167,95.5 244.833,95.5 239.5,95.5C 239.5,90.1667 239.5,84.8333 239.5,79.5 Z"/></g>
<g><path style="opacity:1" fill="#dbbd00" d="M 79.5,111.5 C 74.1667,111.5 68.8333,111.5 63.5,111.5C 63.5,106.167 63.5,100.833 63.5,95.5C 68.8333,95.5 74.1667,95.5 79.5,95.5C 79.5,100.833 79.5,106.167 79.5,111.5 Z"/></g>
<g><path style="opacity:1" fill="#98e65e" d="M 127.5,95.5 C 127.5,100.833 127.5,106.167 127.5,111.5C 122.167,111.5 116.833,111.5 111.5,111.5C 111.5,106.167 111.5,100.833 111.5,95.5C 116.833,95.5 122.167,95.5 127.5,95.5 Z"/></g>
<g><path style="opacity:1" fill="#5ac54e" d="M 127.5,95.5 C 132.833,95.5 138.167,95.5 143.5,95.5C 143.5,100.833 143.5,106.167 143.5,111.5C 138.167,111.5 132.833,111.5 127.5,111.5C 127.5,106.167 127.5,100.833 127.5,95.5 Z"/></g>
<g><path style="opacity:1" fill="#dbbd00" d="M 143.5,95.5 C 148.833,95.5 154.167,95.5 159.5,95.5C 159.5,100.833 159.5,106.167 159.5,111.5C 154.167,111.5 148.833,111.5 143.5,111.5C 143.5,106.167 143.5,100.833 143.5,95.5 Z"/></g>
<g><path style="opacity:1" fill="#ddd22c" d="M 159.5,95.5 C 164.833,95.5 170.167,95.5 175.5,95.5C 175.5,100.833 175.5,106.167 175.5,111.5C 170.167,111.5 164.833,111.5 159.5,111.5C 159.5,106.167 159.5,100.833 159.5,95.5 Z"/></g>
<g><path style="opacity:1" fill="#918917" d="M 175.5,95.5 C 180.833,95.5 186.167,95.5 191.5,95.5C 191.5,100.833 191.5,106.167 191.5,111.5C 186.167,111.5 180.833,111.5 175.5,111.5C 175.5,106.167 175.5,100.833 175.5,95.5 Z"/></g>
<g><path style="opacity:1" fill="#b0a822" d="M 191.5,95.5 C 196.833,95.5 202.167,95.5 207.5,95.5C 207.5,100.833 207.5,106.167 207.5,111.5C 202.167,111.5 196.833,111.5 191.5,111.5C 191.5,106.167 191.5,100.833 191.5,95.5 Z"/></g>
<g><path style="opacity:1" fill="#918917" d="M 207.5,95.5 C 212.833,95.5 218.167,95.5 223.5,95.5C 223.5,100.833 223.5,106.167 223.5,111.5C 218.167,111.5 212.833,111.5 207.5,111.5C 207.5,106.167 207.5,100.833 207.5,95.5 Z"/></g>
<g><path style="opacity:1" fill="#635f0c" d="M 223.5,95.5 C 228.833,95.5 234.167,95.5 239.5,95.5C 239.5,100.833 239.5,106.167 239.5,111.5C 234.167,111.5 228.833,111.5 223.5,111.5C 223.5,106.167 223.5,100.833 223.5,95.5 Z"/></g>
<g><path style="opacity:1" fill="#efcb5d" d="M -0.5,111.5 C 4.83333,111.5 10.1667,111.5 15.5,111.5C 15.5,116.833 15.5,122.167 15.5,127.5C 10.1667,127.5 4.83333,127.5 -0.5,127.5C -0.5,122.167 -0.5,116.833 -0.5,111.5 Z"/></g>
<g><path style="opacity:1" fill="#e4dc68" d="M 63.5,111.5 C 68.8333,111.5 74.1667,111.5 79.5,111.5C 79.5,116.833 79.5,122.167 79.5,127.5C 79.5,132.833 79.5,138.167 79.5,143.5C 74.1667,143.5 68.8333,143.5 63.5,143.5C 63.5,148.833 63.5,154.167 63.5,159.5C 58.1667,159.5 52.8333,159.5 47.5,159.5C 42.1667,159.5 36.8333,159.5 31.5,159.5C 31.5,154.167 31.5,148.833 31.5,143.5C 36.8333,143.5 42.1667,143.5 47.5,143.5C 47.5,138.167 47.5,132.833 47.5,127.5C 52.8333,127.5 58.1667,127.5 63.5,127.5C 63.5,122.167 63.5,116.833 63.5,111.5 Z"/></g>
<g><path style="opacity:1" fill="#5ac54e" d="M 79.5,111.5 C 84.8333,111.5 90.1667,111.5 95.5,111.5C 95.5,116.833 95.5,122.167 95.5,127.5C 90.1667,127.5 84.8333,127.5 79.5,127.5C 79.5,122.167 79.5,116.833 79.5,111.5 Z"/></g>
<g><path style="opacity:1" fill="#33984a" d="M 95.5,111.5 C 100.833,111.5 106.167,111.5 111.5,111.5C 111.5,116.833 111.5,122.167 111.5,127.5C 106.167,127.5 100.833,127.5 95.5,127.5C 95.5,122.167 95.5,116.833 95.5,111.5 Z"/></g>
<g><path style="opacity:1" fill="#5ac54e" d="M 111.5,111.5 C 116.833,111.5 122.167,111.5 127.5,111.5C 127.5,116.833 127.5,122.167 127.5,127.5C 122.167,127.5 116.833,127.5 111.5,127.5C 111.5,122.167 111.5,116.833 111.5,111.5 Z"/></g>
<g><path style="opacity:1" fill="#98e65e" d="M 127.5,111.5 C 132.833,111.5 138.167,111.5 143.5,111.5C 148.833,111.5 154.167,111.5 159.5,111.5C 159.5,116.833 159.5,122.167 159.5,127.5C 148.833,127.5 138.167,127.5 127.5,127.5C 127.5,122.167 127.5,116.833 127.5,111.5 Z"/></g>
<g><path style="opacity:1" fill="#918917" d="M 159.5,111.5 C 164.833,111.5 170.167,111.5 175.5,111.5C 175.5,116.833 175.5,122.167 175.5,127.5C 170.167,127.5 164.833,127.5 159.5,127.5C 159.5,122.167 159.5,116.833 159.5,111.5 Z"/></g>
<g><path style="opacity:1" fill="#b0a822" d="M 175.5,111.5 C 180.833,111.5 186.167,111.5 191.5,111.5C 191.5,116.833 191.5,122.167 191.5,127.5C 186.167,127.5 180.833,127.5 175.5,127.5C 175.5,122.167 175.5,116.833 175.5,111.5 Z"/></g>
<g><path style="opacity:1" fill="#918917" d="M 191.5,111.5 C 196.833,111.5 202.167,111.5 207.5,111.5C 207.5,116.833 207.5,122.167 207.5,127.5C 202.167,127.5 196.833,127.5 191.5,127.5C 191.5,122.167 191.5,116.833 191.5,111.5 Z"/></g>
<g><path style="opacity:1" fill="#635f0c" d="M 207.5,111.5 C 212.833,111.5 218.167,111.5 223.5,111.5C 223.5,116.833 223.5,122.167 223.5,127.5C 218.167,127.5 212.833,127.5 207.5,127.5C 207.5,122.167 207.5,116.833 207.5,111.5 Z"/></g>
<g><path style="opacity:1" fill="#918917" d="M 223.5,111.5 C 228.833,111.5 234.167,111.5 239.5,111.5C 239.5,116.833 239.5,122.167 239.5,127.5C 234.167,127.5 228.833,127.5 223.5,127.5C 223.5,122.167 223.5,116.833 223.5,111.5 Z"/></g>
<g><path style="opacity:1" fill="#d5b000" d="M 15.5,127.5 C 20.8333,127.5 26.1667,127.5 31.5,127.5C 31.5,132.833 31.5,138.167 31.5,143.5C 26.1667,143.5 20.8333,143.5 15.5,143.5C 15.5,138.167 15.5,132.833 15.5,127.5 Z"/></g>
<g><path style="opacity:1" fill="#dbbd00" d="M 31.5,127.5 C 36.8333,127.5 42.1667,127.5 47.5,127.5C 47.5,132.833 47.5,138.167 47.5,143.5C 42.1667,143.5 36.8333,143.5 31.5,143.5C 31.5,138.167 31.5,132.833 31.5,127.5 Z"/></g>
<g><path style="opacity:1" fill="#98e65e" d="M 79.5,127.5 C 84.8333,127.5 90.1667,127.5 95.5,127.5C 95.5,132.833 95.5,138.167 95.5,143.5C 90.1667,143.5 84.8333,143.5 79.5,143.5C 79.5,138.167 79.5,132.833 79.5,127.5 Z"/></g>
<g><path style="opacity:1" fill="#5ac54e" d="M 95.5,127.5 C 100.833,127.5 106.167,127.5 111.5,127.5C 111.5,132.833 111.5,138.167 111.5,143.5C 106.167,143.5 100.833,143.5 95.5,143.5C 95.5,138.167 95.5,132.833 95.5,127.5 Z"/></g>
<g><path style="opacity:1" fill="#33984a" d="M 111.5,127.5 C 116.833,127.5 122.167,127.5 127.5,127.5C 127.5,132.833 127.5,138.167 127.5,143.5C 122.167,143.5 116.833,143.5 111.5,143.5C 111.5,138.167 111.5,132.833 111.5,127.5 Z"/></g>
<g><path style="opacity:1" fill="#5ac54e" d="M 127.5,127.5 C 138.167,127.5 148.833,127.5 159.5,127.5C 159.5,132.833 159.5,138.167 159.5,143.5C 148.833,143.5 138.167,143.5 127.5,143.5C 127.5,138.167 127.5,132.833 127.5,127.5 Z"/></g>
<g><path style="opacity:1" fill="#0d8159" d="M 159.5,127.5 C 164.833,127.5 170.167,127.5 175.5,127.5C 175.5,132.833 175.5,138.167 175.5,143.5C 170.167,143.5 164.833,143.5 159.5,143.5C 159.5,138.167 159.5,132.833 159.5,127.5 Z"/></g>
<g><path style="opacity:1" fill="#918917" d="M 175.5,127.5 C 180.833,127.5 186.167,127.5 191.5,127.5C 191.5,132.833 191.5,138.167 191.5,143.5C 186.167,143.5 180.833,143.5 175.5,143.5C 175.5,138.167 175.5,132.833 175.5,127.5 Z"/></g>
<g><path style="opacity:1" fill="#635f0c" d="M 191.5,127.5 C 196.833,127.5 202.167,127.5 207.5,127.5C 207.5,132.833 207.5,138.167 207.5,143.5C 207.5,148.833 207.5,154.167 207.5,159.5C 202.167,159.5 196.833,159.5 191.5,159.5C 191.5,154.167 191.5,148.833 191.5,143.5C 191.5,138.167 191.5,132.833 191.5,127.5 Z"/></g>
<g><path style="opacity:1" fill="#918917" d="M 207.5,127.5 C 212.833,127.5 218.167,127.5 223.5,127.5C 223.5,132.833 223.5,138.167 223.5,143.5C 218.167,143.5 212.833,143.5 207.5,143.5C 207.5,138.167 207.5,132.833 207.5,127.5 Z"/></g>
<g><path style="opacity:1" fill="#635f0c" d="M 223.5,127.5 C 228.833,127.5 234.167,127.5 239.5,127.5C 244.833,127.5 250.167,127.5 255.5,127.5C 255.5,132.833 255.5,138.167 255.5,143.5C 244.833,143.5 234.167,143.5 223.5,143.5C 223.5,138.167 223.5,132.833 223.5,127.5 Z"/></g>
<g><path style="opacity:1" fill="#dbbd00" d="M 15.5,143.5 C 20.8333,143.5 26.1667,143.5 31.5,143.5C 31.5,148.833 31.5,154.167 31.5,159.5C 26.1667,159.5 20.8333,159.5 15.5,159.5C 15.5,154.167 15.5,148.833 15.5,143.5 Z"/></g>
<g><path style="opacity:1" fill="#dbbd00" d="M 79.5,143.5 C 84.8333,143.5 90.1667,143.5 95.5,143.5C 95.5,148.833 95.5,154.167 95.5,159.5C 90.1667,159.5 84.8333,159.5 79.5,159.5C 74.1667,159.5 68.8333,159.5 63.5,159.5C 63.5,154.167 63.5,148.833 63.5,143.5C 68.8333,143.5 74.1667,143.5 79.5,143.5 Z"/></g>
<g><path style="opacity:1" fill="#ddd22c" d="M 95.5,143.5 C 100.833,143.5 106.167,143.5 111.5,143.5C 111.5,148.833 111.5,154.167 111.5,159.5C 106.167,159.5 100.833,159.5 95.5,159.5C 95.5,154.167 95.5,148.833 95.5,143.5 Z"/></g>
<g><path style="opacity:1" fill="#5ac54e" d="M 111.5,143.5 C 116.833,143.5 122.167,143.5 127.5,143.5C 127.5,148.833 127.5,154.167 127.5,159.5C 122.167,159.5 116.833,159.5 111.5,159.5C 111.5,154.167 111.5,148.833 111.5,143.5 Z"/></g>
<g><path style="opacity:1" fill="#33984a" d="M 127.5,143.5 C 138.167,143.5 148.833,143.5 159.5,143.5C 159.5,148.833 159.5,154.167 159.5,159.5C 154.167,159.5 148.833,159.5 143.5,159.5C 143.5,164.833 143.5,170.167 143.5,175.5C 138.167,175.5 132.833,175.5 127.5,175.5C 127.5,170.167 127.5,164.833 127.5,159.5C 127.5,154.167 127.5,148.833 127.5,143.5 Z"/></g>
<g><path style="opacity:1" fill="#5ac54e" d="M 159.5,143.5 C 164.833,143.5 170.167,143.5 175.5,143.5C 175.5,148.833 175.5,154.167 175.5,159.5C 170.167,159.5 164.833,159.5 159.5,159.5C 159.5,154.167 159.5,148.833 159.5,143.5 Z"/></g>
<g><path style="opacity:1" fill="#0d8159" d="M 175.5,143.5 C 180.833,143.5 186.167,143.5 191.5,143.5C 191.5,148.833 191.5,154.167 191.5,159.5C 186.167,159.5 180.833,159.5 175.5,159.5C 175.5,154.167 175.5,148.833 175.5,143.5 Z"/></g>
<g><path style="opacity:1" fill="#dbbd00" d="M -0.5,159.5 C 4.83333,159.5 10.1667,159.5 15.5,159.5C 15.5,164.833 15.5,170.167 15.5,175.5C 10.1667,175.5 4.83333,175.5 -0.5,175.5C -0.5,170.167 -0.5,164.833 -0.5,159.5 Z"/></g>
<g><path style="opacity:1" fill="#e4dc68" d="M 15.5,159.5 C 20.8333,159.5 26.1667,159.5 31.5,159.5C 31.5,164.833 31.5,170.167 31.5,175.5C 31.5,180.833 31.5,186.167 31.5,191.5C 26.1667,191.5 20.8333,191.5 15.5,191.5C 15.5,186.167 15.5,180.833 15.5,175.5C 15.5,170.167 15.5,164.833 15.5,159.5 Z"/></g>
<g><path style="opacity:1" fill="#d5b000" d="M 31.5,159.5 C 36.8333,159.5 42.1667,159.5 47.5,159.5C 47.5,164.833 47.5,170.167 47.5,175.5C 42.1667,175.5 36.8333,175.5 31.5,175.5C 31.5,170.167 31.5,164.833 31.5,159.5 Z"/></g>
<g><path style="opacity:1" fill="#dbbd00" d="M 47.5,159.5 C 52.8333,159.5 58.1667,159.5 63.5,159.5C 63.5,164.833 63.5,170.167 63.5,175.5C 58.1667,175.5 52.8333,175.5 47.5,175.5C 47.5,170.167 47.5,164.833 47.5,159.5 Z"/></g>
<g><path style="opacity:1" fill="#ddd22c" d="M 63.5,159.5 C 68.8333,159.5 74.1667,159.5 79.5,159.5C 79.5,164.833 79.5,170.167 79.5,175.5C 74.1667,175.5 68.8333,175.5 63.5,175.5C 63.5,170.167 63.5,164.833 63.5,159.5 Z"/></g>
<g><path style="opacity:1" fill="#b0a822" d="M 79.5,159.5 C 84.8333,159.5 90.1667,159.5 95.5,159.5C 100.833,159.5 106.167,159.5 111.5,159.5C 111.5,164.833 111.5,170.167 111.5,175.5C 100.833,175.5 90.1667,175.5 79.5,175.5C 79.5,170.167 79.5,164.833 79.5,159.5 Z"/></g>
<g><path style="opacity:1" fill="#918917" d="M 111.5,159.5 C 116.833,159.5 122.167,159.5 127.5,159.5C 127.5,164.833 127.5,170.167 127.5,175.5C 122.167,175.5 116.833,175.5 111.5,175.5C 111.5,170.167 111.5,164.833 111.5,159.5 Z"/></g>
<g><path style="opacity:1" fill="#0d8159" d="M 159.5,159.5 C 159.5,164.833 159.5,170.167 159.5,175.5C 154.167,175.5 148.833,175.5 143.5,175.5C 143.5,170.167 143.5,164.833 143.5,159.5C 148.833,159.5 154.167,159.5 159.5,159.5 Z"/></g>
<g><path style="opacity:1" fill="#635f0c" d="M 207.5,159.5 C 212.833,159.5 218.167,159.5 223.5,159.5C 223.5,164.833 223.5,170.167 223.5,175.5C 218.167,175.5 212.833,175.5 207.5,175.5C 207.5,170.167 207.5,164.833 207.5,159.5 Z"/></g>
<g><path style="opacity:1" fill="#dbbd00" d="M 31.5,175.5 C 36.8333,175.5 42.1667,175.5 47.5,175.5C 47.5,180.833 47.5,186.167 47.5,191.5C 42.1667,191.5 36.8333,191.5 31.5,191.5C 31.5,186.167 31.5,180.833 31.5,175.5 Z"/></g>
<g><path style="opacity:1" fill="#ddd22c" d="M 47.5,175.5 C 52.8333,175.5 58.1667,175.5 63.5,175.5C 63.5,180.833 63.5,186.167 63.5,191.5C 63.5,196.833 63.5,202.167 63.5,207.5C 58.1667,207.5 52.8333,207.5 47.5,207.5C 47.5,202.167 47.5,196.833 47.5,191.5C 47.5,186.167 47.5,180.833 47.5,175.5 Z"/></g>
<g><path style="opacity:1" fill="#b0a822" d="M 63.5,175.5 C 68.8333,175.5 74.1667,175.5 79.5,175.5C 79.5,180.833 79.5,186.167 79.5,191.5C 74.1667,191.5 68.8333,191.5 63.5,191.5C 63.5,186.167 63.5,180.833 63.5,175.5 Z"/></g>
<g><path style="opacity:1" fill="#918917" d="M 79.5,175.5 C 90.1667,175.5 100.833,175.5 111.5,175.5C 111.5,180.833 111.5,186.167 111.5,191.5C 106.167,191.5 100.833,191.5 95.5,191.5C 90.1667,191.5 84.8333,191.5 79.5,191.5C 79.5,186.167 79.5,180.833 79.5,175.5 Z"/></g>
<g><path style="opacity:1" fill="#635f0c" d="M 111.5,175.5 C 116.833,175.5 122.167,175.5 127.5,175.5C 127.5,180.833 127.5,186.167 127.5,191.5C 122.167,191.5 116.833,191.5 111.5,191.5C 111.5,186.167 111.5,180.833 111.5,175.5 Z"/></g>
<g><path style="opacity:1" fill="#0d8159" d="M 127.5,175.5 C 132.833,175.5 138.167,175.5 143.5,175.5C 143.5,180.833 143.5,186.167 143.5,191.5C 138.167,191.5 132.833,191.5 127.5,191.5C 127.5,186.167 127.5,180.833 127.5,175.5 Z"/></g>
<g><path style="opacity:1" fill="#0d8159" d="M 159.5,175.5 C 164.833,175.5 170.167,175.5 175.5,175.5C 175.5,180.833 175.5,186.167 175.5,191.5C 170.167,191.5 164.833,191.5 159.5,191.5C 159.5,186.167 159.5,180.833 159.5,175.5 Z"/></g>
<g><path style="opacity:1" fill="#e4dc68" d="M -0.5,191.5 C 4.83333,191.5 10.1667,191.5 15.5,191.5C 15.5,196.833 15.5,202.167 15.5,207.5C 10.1667,207.5 4.83333,207.5 -0.5,207.5C -0.5,202.167 -0.5,196.833 -0.5,191.5 Z"/></g>
<g><path style="opacity:1" fill="#918917" d="M 63.5,191.5 C 68.8333,191.5 74.1667,191.5 79.5,191.5C 79.5,196.833 79.5,202.167 79.5,207.5C 74.1667,207.5 68.8333,207.5 63.5,207.5C 63.5,202.167 63.5,196.833 63.5,191.5 Z"/></g>
<g><path style="opacity:1" fill="#b0a822" d="M 79.5,191.5 C 84.8333,191.5 90.1667,191.5 95.5,191.5C 95.5,196.833 95.5,202.167 95.5,207.5C 90.1667,207.5 84.8333,207.5 79.5,207.5C 79.5,202.167 79.5,196.833 79.5,191.5 Z"/></g>
<g><path style="opacity:1" fill="#635f0c" d="M 95.5,191.5 C 100.833,191.5 106.167,191.5 111.5,191.5C 111.5,202.167 111.5,212.833 111.5,223.5C 106.167,223.5 100.833,223.5 95.5,223.5C 95.5,218.167 95.5,212.833 95.5,207.5C 95.5,202.167 95.5,196.833 95.5,191.5 Z"/></g>
<g><path style="opacity:1" fill="#918917" d="M 111.5,191.5 C 116.833,191.5 122.167,191.5 127.5,191.5C 127.5,202.167 127.5,212.833 127.5,223.5C 122.167,223.5 116.833,223.5 111.5,223.5C 111.5,212.833 111.5,202.167 111.5,191.5 Z"/></g>
<g><path style="opacity:1" fill="#635f0c" d="M 127.5,191.5 C 132.833,191.5 138.167,191.5 143.5,191.5C 143.5,202.167 143.5,212.833 143.5,223.5C 138.167,223.5 132.833,223.5 127.5,223.5C 127.5,212.833 127.5,202.167 127.5,191.5 Z"/></g>
<g><path style="opacity:1" fill="#dbbd00" d="M -0.5,207.5 C 4.83333,207.5 10.1667,207.5 15.5,207.5C 15.5,212.833 15.5,218.167 15.5,223.5C 10.1667,223.5 4.83333,223.5 -0.5,223.5C -0.5,218.167 -0.5,212.833 -0.5,207.5 Z"/></g>
<g><path style="opacity:1" fill="#ddd22c" d="M 47.5,207.5 C 47.5,212.833 47.5,218.167 47.5,223.5C 42.1667,223.5 36.8333,223.5 31.5,223.5C 31.5,218.167 31.5,212.833 31.5,207.5C 36.8333,207.5 42.1667,207.5 47.5,207.5 Z"/></g>
<g><path style="opacity:1" fill="#918917" d="M 47.5,207.5 C 52.8333,207.5 58.1667,207.5 63.5,207.5C 63.5,212.833 63.5,218.167 63.5,223.5C 58.1667,223.5 52.8333,223.5 47.5,223.5C 47.5,218.167 47.5,212.833 47.5,207.5 Z"/></g>
<g><path style="opacity:1" fill="#b0a822" d="M 63.5,207.5 C 68.8333,207.5 74.1667,207.5 79.5,207.5C 79.5,212.833 79.5,218.167 79.5,223.5C 74.1667,223.5 68.8333,223.5 63.5,223.5C 63.5,218.167 63.5,212.833 63.5,207.5 Z"/></g>
<g><path style="opacity:1" fill="#918917" d="M 79.5,207.5 C 84.8333,207.5 90.1667,207.5 95.5,207.5C 95.5,212.833 95.5,218.167 95.5,223.5C 90.1667,223.5 84.8333,223.5 79.5,223.5C 79.5,218.167 79.5,212.833 79.5,207.5 Z"/></g>
<g><path style="opacity:1" fill="#a8a020" d="M 31.5,223.5 C 36.8333,223.5 42.1667,223.5 47.5,223.5C 47.5,228.833 47.5,234.167 47.5,239.5C 42.1667,239.5 36.8333,239.5 31.5,239.5C 31.5,234.167 31.5,228.833 31.5,223.5 Z"/></g>
<g><path style="opacity:1" fill="#918917" d="M 63.5,223.5 C 68.8333,223.5 74.1667,223.5 79.5,223.5C 79.5,228.833 79.5,234.167 79.5,239.5C 74.1667,239.5 68.8333,239.5 63.5,239.5C 63.5,234.167 63.5,228.833 63.5,223.5 Z"/></g>
<g><path style="opacity:1" fill="#635f0c" d="M 79.5,223.5 C 84.8333,223.5 90.1667,223.5 95.5,223.5C 95.5,228.833 95.5,234.167 95.5,239.5C 90.1667,239.5 84.8333,239.5 79.5,239.5C 79.5,234.167 79.5,228.833 79.5,223.5 Z"/></g>
<g><path style="opacity:1" fill="#918917" d="M 95.5,223.5 C 100.833,223.5 106.167,223.5 111.5,223.5C 111.5,228.833 111.5,234.167 111.5,239.5C 106.167,239.5 100.833,239.5 95.5,239.5C 95.5,234.167 95.5,228.833 95.5,223.5 Z"/></g>
<g><path style="opacity:1" fill="#635f0c" d="M 111.5,223.5 C 116.833,223.5 122.167,223.5 127.5,223.5C 127.5,228.833 127.5,234.167 127.5,239.5C 122.167,239.5 116.833,239.5 111.5,239.5C 111.5,234.167 111.5,228.833 111.5,223.5 Z"/></g>
<g><path style="opacity:1" fill="#918917" d="M 127.5,223.5 C 132.833,223.5 138.167,223.5 143.5,223.5C 143.5,228.833 143.5,234.167 143.5,239.5C 138.167,239.5 132.833,239.5 127.5,239.5C 127.5,234.167 127.5,228.833 127.5,223.5 Z"/></g>
<g><path style="opacity:1" fill="#afa821" d="M 31.5,239.5 C 36.8333,239.5 42.1667,239.5 47.5,239.5C 47.5,244.833 47.5,250.167 47.5,255.5C 42.1667,255.5 36.8333,255.5 31.5,255.5C 31.5,250.167 31.5,244.833 31.5,239.5 Z"/></g>
<g><path style="opacity:1" fill="#635f0c" d="M 95.5,239.5 C 100.833,239.5 106.167,239.5 111.5,239.5C 111.5,244.833 111.5,250.167 111.5,255.5C 106.167,255.5 100.833,255.5 95.5,255.5C 95.5,250.167 95.5,244.833 95.5,239.5 Z"/></g>
<g><path style="opacity:1" fill="#635f0c" d="M 143.5,239.5 C 148.833,239.5 154.167,239.5 159.5,239.5C 159.5,244.833 159.5,250.167 159.5,255.5C 154.167,255.5 148.833,255.5 143.5,255.5C 143.5,250.167 143.5,244.833 143.5,239.5 Z"/></g>
</svg>
